<svg xmlns="http://www.w3.org/2000/svg" version="1.1" xmlns:xlink="http://www.w3.org/1999/xlink" xmlns:svgjs="http://svgjs.dev/svgjs" viewBox="0 0 800 800"><defs><filter id="bbburst-blur-1" x="-100%" y="-100%" width="400%" height="400%"><feGaussianBlur in="SourceGraphic" stdDeviation="1"></feGaussianBlur></filter><filter id="bbburst-blur-2" x="-100%" y="-100%" width="400%" height="400%"><feGaussianBlur in="SourceGraphic" stdDeviation="2"></feGaussianBlur></filter><filter id="bbburst-blur-3" x="-100%" y="-100%" width="400%" height="400%"><feGaussianBlur in="SourceGraphic" stdDeviation="4"></feGaussianBlur></filter><filter id="bbburst-blur-4" x="-100%" y="-100%" width="400%" height="400%"><feGaussianBlur in="SourceGraphic" stdDeviation="12"></feGaussianBlur></filter><symbol id="bbburst-shape-1" viewBox="0 0 194 167"><path d="m97 0 96.129 166.5H.871L97 0Z"></path></symbol><symbol id="bbburst-shape-4" viewBox="0 0 149 143"><path d="M71.647 2.781c.898-2.764 4.808-2.764 5.706 0l15.445 47.534a3 3 0 0 0 2.853 2.073h49.98c2.906 0 4.115 3.719 1.764 5.427L106.96 87.193a2.999 2.999 0 0 0-1.09 3.354l15.445 47.534c.898 2.764-2.266 5.062-4.617 3.354l-40.435-29.378a3 3 0 0 0-3.526 0l-40.435 29.378c-2.351 1.708-5.515-.59-4.617-3.354L43.13 90.547a3 3 0 0 0-1.09-3.354L1.605 57.815c-2.35-1.708-1.142-5.427 1.764-5.427h49.98a3 3 0 0 0 2.853-2.073L71.647 2.781Z"></path></symbol><symbol id="bbburst-shape-6" viewBox="0 0 133 116"><path d="M59.7487 10.2513c-13.6683-13.66839-35.8291-13.66839-49.4974 0-13.66839 13.6683-13.66839 35.8291 0 49.4974l49.4974-49.4974ZM66.5 66.5 41.7513 91.2487 66.5 115.997l24.7487-24.7483L66.5 66.5Zm56.249-6.7513c13.668-13.6683 13.668-35.8291 0-49.4974-13.669-13.66839-35.8294-13.66839-49.4977 0l49.4977 49.4974Zm-112.4977 0 31.5 31.5 49.4974-49.4974-31.5-31.5-49.4974 49.4974Zm80.9974 31.5 31.5003-31.5-49.4977-49.4974-31.5 31.5 49.4974 49.4974Z"></path></symbol><symbol id="bbburst-shape-8" viewBox="0 0 87 168"><path d="m12 12 31.2546 18.0749c16.4102 9.4902 20.014 31.6325 7.4603 45.8369L36.3296 92.1884c-12.5684 14.2206-8.9394 36.3916 7.5068 45.8636L75 156" stroke-width="14" stroke-linecap="round" stroke-linejoin="round"></path></symbol><symbol id="bbburst-shape-10" viewBox="0 0 145 145"><circle cx="72.5" cy="72.5" r="61.5" fill="none" stroke-width="22"></circle></symbol></defs><use xlink:href="#bbburst-shape-10" width="38.45322457122656" opacity="0.33995303714911684" transform="matrix(0.7206230971938563,0.6933270164869777,-0.6933270164869777,0.7206230971938563,665.0811315549508,395.4372365970488)" fill="none" stroke="#00a19d" filter="url(#bbburst-blur-2)"></use><use xlink:href="#bbburst-shape-6" width="24.83067915333788" opacity="0.6518596158087531" transform="matrix(0.9953978274685749,-0.09582883214795715,0.09582883214795715,0.9953978274685749,490.4268925812454,-65.00919253147032)" fill="#ffa6d5" filter="url(#bbburst-blur-1)"></use><use xlink:href="#bbburst-shape-8" width="35.628144806473856" opacity="0.32898482985624966" transform="matrix(0.9234154522072114,-0.842498606897929,0.842498606897929,0.9234154522072114,220.37357146418572,292.5501681791355)" fill="none" stroke="#ffbd9b" filter="url(#bbburst-blur-3)"></use><use xlink:href="#bbburst-shape-1" width="20.694509071435128" opacity="0.7917374892674984" transform="matrix(0.7974497562338215,0.6033853547134026,-0.6033853547134026,0.7974497562338215,710.8548855543197,22.498947087896397)" fill="#00a19d"></use><use xlink:href="#bbburst-shape-8" width="16.394131771286435" opacity="0.7536237304731052" transform="matrix(0.995333693077427,-0.09649269104367546,0.09649269104367546,0.995333693077427,395.30822560589013,-99.92231034620664)" fill="none" stroke="#ff5c58" filter="url(#bbburst-blur-1)"></use><use xlink:href="#bbburst-shape-4" width="42.64841218654236" opacity="0.08114435212458992" transform="matrix(1.7494562609166189,-0.04362099425326304,0.04362099425326304,1.7494562609166189,558.7435916184147,55.318894703160254)" fill="#ffbd9b" filter="url(#bbburst-blur-4)"></use><use xlink:href="#bbburst-shape-8" width="23.254361202089147" opacity="0.6483401071859081" transform="matrix(0.844252483527452,-0.5359456540151524,0.5359456540151524,0.844252483527452,49.00020150724896,-26.140062164958408)" fill="none" stroke="#ff5c58" filter="url(#bbburst-blur-1)"></use><use xlink:href="#bbburst-shape-1" width="28.008545938362932" opacity="0.4624949760030843" transform="matrix(0.9999031224383633,-0.01391925781108402,0.01391925781108402,0.9999031224383633,328.8922758192765,236.59261823317996)" fill="#00a19d" filter="url(#bbburst-blur-2)"></use><use xlink:href="#bbburst-shape-6" width="18.306291085804695" opacity="0.7118461332696002" transform="matrix(0.757278139997346,-0.653092503924337,0.653092503924337,0.757278139997346,89.74770942853411,-19.583381613764402)" fill="#ffa6d5" filter="url(#bbburst-blur-1)"></use><use xlink:href="#bbburst-shape-6" width="20.8028315052505" opacity="0.6780871413474604" transform="matrix(0.8300802675985003,-0.557643927021179,0.557643927021179,0.8300802675985003,312.13371861276363,91.0590351368574)" fill="#2c2891" filter="url(#bbburst-blur-1)"></use><use xlink:href="#bbburst-shape-4" width="24.244990269016366" opacity="0.5982331742984051" transform="matrix(0.7450778096066465,0.666977554068922,-0.666977554068922,0.7450778096066465,784.9541536155541,-34.56988866809911)" fill="#ffa6d5" filter="url(#bbburst-blur-1)"></use><use xlink:href="#bbburst-shape-6" width="16.45953157547637" opacity="0.8603316341843137" transform="matrix(0.8273705906655077,0.5616563946950208,-0.5616563946950208,0.8273705906655077,652.5436008902532,12.019635788248422)" fill="#00a19d"></use><use xlink:href="#bbburst-shape-6" width="38.44241038050419" opacity="0.5555952304547135" transform="matrix(0.9933803477136509,0.11487160126117318,-0.11487160126117318,0.9933803477136509,453.81329243788673,198.59705759343825)" fill="#00a19d" filter="url(#bbburst-blur-1)"></use><use xlink:href="#bbburst-shape-8" width="35.975167342961896" opacity="0.3851463252493946" transform="matrix(0.9437073947688677,-0.3307814279226639,0.3307814279226639,0.9437073947688677,189.89214122292734,-241.44968163406497)" fill="none" stroke="#ffa6d5" filter="url(#bbburst-blur-2)"></use><use xlink:href="#bbburst-shape-8" width="36.5855024386471" opacity="0.22280121065745329" transform="matrix(1.0681581030841967,0.6492597837657672,-0.6492597837657672,1.0681581030841967,520.1930216896815,289.37877285148403)" fill="none" stroke="#ffa6d5" filter="url(#bbburst-blur-3)"></use><use xlink:href="#bbburst-shape-10" width="25.759912889834787" opacity="0.17538817024630582" transform="matrix(1.2377875068412925,0.1743045837252062,-0.1743045837252062,1.2377875068412925,512.030047810922,-463.83479405925067)" fill="none" stroke="#2c2891" filter="url(#bbburst-blur-3)"></use><use xlink:href="#bbburst-shape-6" width="22.60074139769922" opacity="0.5765408818146129" transform="matrix(0.9681462149737862,-0.25038551561927763,0.25038551561927763,0.9681462149737862,140.78512941650564,135.45527733250856)" fill="#ffa6d5" filter="url(#bbburst-blur-1)"></use><use xlink:href="#bbburst-shape-6" width="33.143907154684904" opacity="0.46495128680690445" transform="matrix(0.7202522322921324,0.6937122760036758,-0.6937122760036758,0.7202522322921324,443.59782377797353,193.72493976770699)" fill="#ffa6d5" filter="url(#bbburst-blur-2)"></use><use xlink:href="#bbburst-shape-6" width="16.118505319228824" opacity="0.8154987465263484" transform="matrix(0.9902874385214001,-0.13903520815507164,0.13903520815507164,0.9902874385214001,294.9558448525715,-66.93325638919788)" fill="#00a19d"></use><use xlink:href="#bbburst-shape-8" width="24.76294747562092" opacity="0.6811071567477792" transform="matrix(0.8198738813555972,0.5725441630746996,-0.5725441630746996,0.8198738813555972,686.7305221008933,191.40210237709846)" fill="none" stroke="#ff5c58" filter="url(#bbburst-blur-1)"></use><use xlink:href="#bbburst-shape-8" width="39.81927909988646" opacity="0.2546418031523182" transform="matrix(1.15227318209136,-0.4845271033007867,0.4845271033007867,1.15227318209136,33.540821133819804,-351.40994574034636)" fill="none" stroke="#ffa6d5" filter="url(#bbburst-blur-3)"></use><use xlink:href="#bbburst-shape-1" width="31.59725527966284" opacity="0.3805204438981068" transform="matrix(0.9863544466678618,0.16463567516955835,-0.16463567516955835,0.9863544466678618,306.8368931729452,241.93479264383694)" fill="#ffa6d5" filter="url(#bbburst-blur-2)"></use><use xlink:href="#bbburst-shape-1" width="19.528602050109576" opacity="0.628533925437976" transform="matrix(0.8907735543332791,-0.45444743909549845,0.45444743909549845,0.8907735543332791,207.02571739954595,-118.99053628133908)" fill="#00a19d" filter="url(#bbburst-blur-1)"></use><use xlink:href="#bbburst-shape-1" width="38.46671437741378" opacity="-0.08760866429077385" transform="matrix(1.7487346489611244,0.06653666299727537,-0.06653666299727537,1.7487346489611244,741.6422838323218,-644.1523212814403)" fill="#ff5c58" filter="url(#bbburst-blur-4)"></use><use xlink:href="#bbburst-shape-10" width="14.016403223920912" opacity="0.7249772230676004" transform="matrix(0.8630204712042059,-0.5051689482563931,0.5051689482563931,0.8630204712042059,200.80212408656527,-65.10639000715332)" fill="none" stroke="#ffbd9b" filter="url(#bbburst-blur-1)"></use><use xlink:href="#bbburst-shape-8" width="13.485359086357171" opacity="0.7854868300589115" transform="matrix(0.9142585707927419,-0.40513117101997115,0.40513117101997115,0.9142585707927419,135.3067163801489,40.27623472162827)" fill="none" stroke="#ffa6d5"></use><use xlink:href="#bbburst-shape-6" width="38.03068816848233" opacity="0.236695504981979" transform="matrix(1.2298538369831824,0.22351630736423678,-0.22351630736423678,1.2298538369831824,123.16940218099646,-117.0856533832279)" fill="#00a19d" filter="url(#bbburst-blur-3)"></use><use xlink:href="#bbburst-shape-4" width="31.28549521188093" opacity="0.1814221114794219" transform="matrix(1.0113581311929383,-0.7346119591116984,0.7346119591116984,1.0113581311929383,21.79189125184064,-354.9459728781496)" fill="#ff5c58" filter="url(#bbburst-blur-3)"></use><use xlink:href="#bbburst-shape-1" width="35.13382388123004" opacity="0.04747923308407864" transform="matrix(1.6593134124524016,0.556038667050742,-0.556038667050742,1.6593134124524016,829.3117321807895,-631.1863767432092)" fill="#00a19d" filter="url(#bbburst-blur-4)"></use><use xlink:href="#bbburst-shape-6" width="35.88634688267685" opacity="0.30544818645350125" transform="matrix(1.2225433033520137,-0.2605530107850342,0.2605530107850342,1.2225433033520137,458.14960685524596,-336.76467597268436)" fill="#2c2891" filter="url(#bbburst-blur-3)"></use><use xlink:href="#bbburst-shape-10" width="32.84065347006489" opacity="0.18213536197256708" transform="matrix(1.224350249622529,-0.25192551726502677,0.25192551726502677,1.224350249622529,421.685565330675,-424.9106754420414)" fill="none" stroke="#2c2891" filter="url(#bbburst-blur-3)"></use><use xlink:href="#bbburst-shape-6" width="23.219184588869002" opacity="0.5684818286897145" transform="matrix(0.8051883103420379,-0.5930192112305757,0.5930192112305757,0.8051883103420379,89.13927341659348,-98.41684986055142)" fill="#ffa6d5" filter="url(#bbburst-blur-1)"></use><use xlink:href="#bbburst-shape-4" width="13.307237601731048" opacity="0.9439320786434116" transform="matrix(0.9930971129648275,0.11729503067446931,-0.11729503067446931,0.9930971129648275,418.35071496508084,-10.433883834500307)" fill="#ffa6d5"></use><use xlink:href="#bbburst-shape-6" width="21.15778945809445" opacity="0.710153167424241" transform="matrix(0.8101026837873402,0.5862880194243685,-0.5862880194243685,0.8101026837873402,514.59355053471,137.67667694193472)" fill="#00a19d" filter="url(#bbburst-blur-1)"></use><use xlink:href="#bbburst-shape-8" width="40.575872632433786" opacity="0.1502984459315384" transform="matrix(1.1140768576745195,-0.5668622012394795,0.5668622012394795,1.1140768576745195,421.6690337151589,-303.8592767998224)" fill="none" stroke="#2c2891" filter="url(#bbburst-blur-3)"></use><use xlink:href="#bbburst-shape-6" width="31.394231664426073" opacity="0.46664075901579916" transform="matrix(0.7900411624287023,0.6130537999786844,-0.6130537999786844,0.7900411624287023,788.8556672859851,-108.00839040091603)" fill="#ff5c58" filter="url(#bbburst-blur-2)"></use><use xlink:href="#bbburst-shape-1" width="15.317138924658057" opacity="0.8760857033440969" transform="matrix(0.9375196578204903,0.3479323083591848,-0.3479323083591848,0.9375196578204903,587.2548443197927,14.950547297787182)" fill="#2c2891"></use><use xlink:href="#bbburst-shape-4" width="16.04145022653327" opacity="0.839156411183501" transform="matrix(0.9469682004635002,0.32132729001894633,-0.32132729001894633,0.9469682004635002,472.9167831360692,72.81065069997095)" fill="#2c2891"></use><use xlink:href="#bbburst-shape-10" width="41.441174878972966" opacity="0.18447815884184937" transform="matrix(1.2125726213983803,0.30359123477969624,-0.30359123477969624,1.2125726213983803,592.3902897501717,262.86490271526134)" fill="none" stroke="#2c2891" filter="url(#bbburst-blur-3)"></use><use xlink:href="#bbburst-shape-1" width="34.233873799517134" opacity="0.31822280745458864" transform="matrix(1.0690687080401815,0.6477592897746021,-0.6477592897746021,1.0690687080401815,658.8309861551222,-344.9359902151007)" fill="#ffbd9b" filter="url(#bbburst-blur-3)"></use><use xlink:href="#bbburst-shape-1" width="14.81288557201433" opacity="0.8233450298639103" transform="matrix(0.9812290668168739,-0.19284584111068262,0.19284584111068262,0.9812290668168739,314.4995586136093,-70.53175785649188)" fill="#ff5c58"></use><use xlink:href="#bbburst-shape-6" width="58.17896088449041" opacity="-0.07030853205692322" transform="matrix(1.5651626392637632,0.7827936590525572,-0.7827936590525572,1.5651626392637632,326.92560881977397,91.6434933361395)" fill="#2c2891" filter="url(#bbburst-blur-4)"></use><use xlink:href="#bbburst-shape-10" width="28.132051430870447" opacity="0.44662968459220953" transform="matrix(0.9998497845664752,-0.017332290742229375,0.017332290742229375,0.9998497845664752,134.32311582990917,-45.96659591677002)" fill="none" stroke="#2c2891" filter="url(#bbburst-blur-2)"></use><use xlink:href="#bbburst-shape-4" width="12.94517483143125" opacity="0.7997863235719911" transform="matrix(0.9701778850885897,-0.24239404135628248,0.24239404135628248,0.9701778850885897,216.6962861630288,54.815514556509356)" fill="#2c2891"></use><use xlink:href="#bbburst-shape-6" width="29.44503488825092" opacity="0.1638001434504065" transform="matrix(1.2499874794111228,0.005594757852490323,-0.005594757852490323,1.2499874794111228,749.6016976202983,-11.709564871493626)" fill="#00a19d" filter="url(#bbburst-blur-3)"></use><use xlink:href="#bbburst-shape-1" width="30.980239932288498" opacity="0.5520535766014721" transform="matrix(0.9821056347062976,0.18833088508829401,-0.18833088508829401,0.9821056347062976,258.81103086512644,14.80585443313521)" fill="#ffa6d5" filter="url(#bbburst-blur-2)"></use><use xlink:href="#bbburst-shape-4" width="15.899325977784244" opacity="0.7046613073215611" transform="matrix(0.9866127883952911,0.16308036600053538,-0.16308036600053538,0.9866127883952911,540.6100928115895,-99.54627520394439)" fill="#ffa6d5" filter="url(#bbburst-blur-1)"></use><use xlink:href="#bbburst-shape-8" width="37.052795901795605" opacity="0.23006343773973859" transform="matrix(0.9741916260177746,-0.7832309211189535,0.7832309211189535,0.9741916260177746,-234.16297795857153,-143.5142968553948)" fill="none" stroke="#00a19d" filter="url(#bbburst-blur-3)"></use><use xlink:href="#bbburst-shape-4" width="30.624657587350498" opacity="0.5540521516538517" transform="matrix(0.9989449561648767,-0.04592357295281606,0.04592357295281606,0.9989449561648767,565.4113433500983,-24.143843328882497)" fill="#ffbd9b" filter="url(#bbburst-blur-2)"></use><use xlink:href="#bbburst-shape-6" width="12.183905861338728" opacity="0.8753423265659563" transform="matrix(0.9448871624369254,-0.32739616714600567,0.32739616714600567,0.9448871624369254,218.31054610057055,-9.486657533214782)" fill="#ffa6d5"></use><use xlink:href="#bbburst-shape-6" width="30.294448204630456" opacity="0.45265877955544465" transform="matrix(0.8936065374403899,0.44885115154558436,-0.44885115154558436,0.8936065374403899,774.3314475246497,167.15664654323808)" fill="#ffbd9b" filter="url(#bbburst-blur-2)"></use><use xlink:href="#bbburst-shape-10" width="27.730787561970384" opacity="0.06958228589931459" transform="matrix(1.662392518058217,0.5467642233212233,-0.5467642233212233,1.662392518058217,386.4309175270047,-635.2011927374866)" fill="none" stroke="#ffa6d5" filter="url(#bbburst-blur-4)"></use><use xlink:href="#bbburst-shape-6" width="29.81146715924779" opacity="0.3409138231089378" transform="matrix(0.9798778327198645,0.19959817870967958,-0.19959817870967958,0.9798778327198645,252.13872753203026,-201.2159576720675)" fill="#2c2891" filter="url(#bbburst-blur-2)"></use><use xlink:href="#bbburst-shape-6" width="44.007455844371336" opacity="0.17735491688902083" transform="matrix(1.2332544438258262,-0.20392027065461743,0.20392027065461743,1.2332544438258262,-70.1139848720295,-8.665415981072101)" fill="#2c2891" filter="url(#bbburst-blur-3)"></use><use xlink:href="#bbburst-shape-4" width="29.65235745071628" opacity="0.5651659492414893" transform="matrix(0.7151694627953383,0.6989510994948268,-0.6989510994948268,0.7151694627953383,811.157758224473,238.00653319227808)" fill="#00a19d" filter="url(#bbburst-blur-1)"></use><use xlink:href="#bbburst-shape-4" width="33.87514030445658" opacity="0.397469673212998" transform="matrix(0.9510428849117526,-0.3090589443111635,0.3090589443111635,0.9510428849117526,55.308134359715126,202.33967227381237)" fill="#2c2891" filter="url(#bbburst-blur-2)"></use><use xlink:href="#bbburst-shape-10" width="50.68302610947134" opacity="0.07866519512422121" transform="matrix(1.7488912126508027,-0.062285843598724445,0.062285843598724445,1.7488912126508027,-23.8772606333846,-83.21820886760258)" fill="none" stroke="#2c2891" filter="url(#bbburst-blur-4)"></use><use xlink:href="#bbburst-shape-8" width="17.936982576202237" opacity="0.812736333899185" transform="matrix(0.9436948843428358,0.3308171175516192,-0.3308171175516192,0.9436948843428358,587.2725956333475,75.05710696522897)" fill="none" stroke="#00a19d"></use><use xlink:href="#bbburst-shape-8" width="24.155478519068843" opacity="0.7180681325908118" transform="matrix(0.8311504045390745,0.556047664354894,-0.556047664354894,0.8311504045390745,541.6008151385809,166.1143460955305)" fill="none" stroke="#ffa6d5" filter="url(#bbburst-blur-1)"></use><use xlink:href="#bbburst-shape-10" width="21.590502651744966" opacity="0.7241418168506065" transform="matrix(0.9124696767471165,-0.4091443376328368,0.4091443376328368,0.9124696767471165,109.71762394007123,-2.6846435445764314)" fill="none" stroke="#ff5c58" filter="url(#bbburst-blur-1)"></use><use xlink:href="#bbburst-shape-4" width="25.697262721038236" opacity="0.5167167160397077" transform="matrix(0.8563229749098262,0.5164406671066726,-0.5164406671066726,0.8563229749098262,703.0237408113604,239.92753557434725)" fill="#ffa6d5" filter="url(#bbburst-blur-2)"></use><use xlink:href="#bbburst-shape-1" width="31.19470344233881" opacity="0.3835274394786783" transform="matrix(0.8933326941138306,-0.4493959252455735,0.4493959252455735,0.8933326941138306,-68.93238401964271,84.21677091527971)" fill="#00a19d" filter="url(#bbburst-blur-2)"></use><use xlink:href="#bbburst-shape-8" width="32.779044641894295" opacity="0.4066502942806186" transform="matrix(0.9635548130533199,-0.2675109759276837,0.2675109759276837,0.9635548130533199,367.98600142095887,-232.13802160895037)" fill="none" stroke="#2c2891" filter="url(#bbburst-blur-2)"></use><use xlink:href="#bbburst-shape-8" width="39.82687695440473" opacity="0.14782277779894148" transform="matrix(1.1984502321147388,-0.3552703775213026,0.3552703775213026,1.1984502321147388,503.5925342575732,200.4415927043567)" fill="none" stroke="#ff5c58" filter="url(#bbburst-blur-3)"></use><use xlink:href="#bbburst-shape-6" width="28.492125002722908" opacity="0.5511449567595752" transform="matrix(0.9667099544441042,0.25587470367091353,-0.25587470367091353,0.9667099544441042,360.6436661096908,-146.63197107196922)" fill="#ffbd9b" filter="url(#bbburst-blur-2)"></use><use xlink:href="#bbburst-shape-4" width="25.583624500248764" opacity="0.6136927857654206" transform="matrix(0.911478523707141,0.41134766417308205,-0.41134766417308205,0.911478523707141,389.05130824956325,88.33282680067879)" fill="#00a19d" filter="url(#bbburst-blur-1)"></use><use xlink:href="#bbburst-shape-6" width="18.924439419152954" opacity="0.8000443050922139" transform="matrix(0.9564207186114527,-0.2919921386112172,0.2919921386112172,0.9564207186114527,252.84236397937585,107.6148092521043)" fill="#2c2891"></use><use xlink:href="#bbburst-shape-1" width="31.835978764264688" opacity="0.36976608577404946" transform="matrix(0.9077059778910386,0.4196067893884385,-0.4196067893884385,0.9077059778910386,827.6648925215194,-41.82091624978585)" fill="#ffa6d5" filter="url(#bbburst-blur-2)"></use><use xlink:href="#bbburst-shape-6" width="34.353620935621606" opacity="0.38428166390855567" transform="matrix(0.8830601859970553,-0.4692597446051027,0.4692597446051027,0.8830601859970553,279.25920988662847,319.4572819783176)" fill="#ffa6d5" filter="url(#bbburst-blur-2)"></use><use xlink:href="#bbburst-shape-4" width="21.84682723544917" opacity="0.7018990410134212" transform="matrix(0.7850965510250262,0.6193733975306079,-0.6193733975306079,0.7850965510250262,750.4916565928675,154.04779454500192)" fill="#2c2891" filter="url(#bbburst-blur-1)"></use><use xlink:href="#bbburst-shape-10" width="28.395162390051517" opacity="0.4275686288940942" transform="matrix(0.8541395994811066,-0.5200437910390382,0.5200437910390382,0.8541395994811066,50.25838215442138,-156.8915557586249)" fill="none" stroke="#ffa6d5" filter="url(#bbburst-blur-2)"></use><use xlink:href="#bbburst-shape-4" width="45.403673079106774" opacity="0.19644788612382946" transform="matrix(1.161320870373983,0.4624217080045167,-0.4624217080045167,1.161320870373983,306.3235953425335,184.09190956519114)" fill="#ffa6d5" filter="url(#bbburst-blur-3)"></use><use xlink:href="#bbburst-shape-6" width="29.017686004922528" opacity="0.5675370231118853" transform="matrix(0.9963887729823513,-0.08490826269995365,0.08490826269995365,0.9963887729823513,536.3976395534354,63.62709110553419)" fill="#2c2891" filter="url(#bbburst-blur-1)"></use><use xlink:href="#bbburst-shape-1" width="25.60483502213789" opacity="0.6015298892224413" transform="matrix(0.9359709097020958,0.35207734404734314,-0.35207734404734314,0.9359709097020958,357.5707337252702,-31.97447121223678)" fill="#ffa6d5" filter="url(#bbburst-blur-1)"></use><use xlink:href="#bbburst-shape-10" width="27.001062167570172" opacity="0.5609434252274359" transform="matrix(0.9664982338904032,-0.25667326289804965,0.25667326289804965,0.9664982338904032,179.44302595687782,184.33160492434934)" fill="none" stroke="#2c2891" filter="url(#bbburst-blur-1)"></use><use xlink:href="#bbburst-shape-10" width="31.957352561984205" opacity="0.1473871687186844" transform="matrix(1.244693172462331,-0.11506044683407901,0.11506044683407901,1.244693172462331,70.17876800632641,-374.53364043502927)" fill="none" stroke="#ff5c58" filter="url(#bbburst-blur-3)"></use><use xlink:href="#bbburst-shape-10" width="17.519888322952127" opacity="0.7974015272602093" transform="matrix(0.9798585887188307,0.19969262909266697,-0.19969262909266697,0.9798585887188307,560.7427045031427,23.933714045724457)" fill="none" stroke="#2c2891"></use><use xlink:href="#bbburst-shape-6" width="32.9857030196917" opacity="0.07886328377537699" transform="matrix(1.5749697548911723,0.762869760298598,-0.762869760298598,1.5749697548911723,1035.9341911436118,-31.523126424104476)" fill="#ffa6d5" filter="url(#bbburst-blur-4)"></use><use xlink:href="#bbburst-shape-4" width="42.360501494415516" opacity="0.21714167011786745" transform="matrix(1.2286570766460896,0.23000388693995016,-0.23000388693995016,1.2286570766460896,817.8929575926251,-112.26780808968414)" fill="#2c2891" filter="url(#bbburst-blur-3)"></use><use xlink:href="#bbburst-shape-10" width="11.868332271689692" opacity="0.9106787658292179" transform="matrix(0.9832059100787599,-0.18249969420850395,0.18249969420850395,0.9832059100787599,285.45097135852563,26.24151114933983)" fill="none" stroke="#ffbd9b"></use><use xlink:href="#bbburst-shape-4" width="18.48446148508239" opacity="0.6893926655996883" transform="matrix(0.9226699374621065,-0.3855906981550159,0.3855906981550159,0.9226699374621065,97.60876951459989,40.75297794881004)" fill="#2c2891" filter="url(#bbburst-blur-1)"></use><use xlink:href="#bbburst-shape-10" width="30.676899616874557" opacity="0.16879362179745083" transform="matrix(1.2491627214847354,0.0457438001575021,-0.0457438001575021,1.2491627214847354,753.3833126796713,-220.4410045527946)" fill="none" stroke="#ffbd9b" filter="url(#bbburst-blur-3)"></use><use xlink:href="#bbburst-shape-8" width="44.157906523549926" opacity="0.27905536174013557" transform="matrix(0.9538403318436524,0.8078914663173459,-0.8078914663173459,0.9538403318436524,409.82638960171766,141.44426004372315)" fill="none" stroke="#ff5c58" filter="url(#bbburst-blur-3)"></use><use xlink:href="#bbburst-shape-4" width="13.359370498598107" opacity="0.9737536939180327" transform="matrix(0.9507359980596626,0.31000171288800527,-0.31000171288800527,0.9507359980596626,516.2258570006492,29.371526288899872)" fill="#00a19d"></use><use xlink:href="#bbburst-shape-10" width="13.191740134196028" opacity="0.9047654867347278" transform="matrix(0.9915073482886632,-0.1300506758520829,0.1300506758520829,0.9915073482886632,334.40798887851673,-38.019843675675986)" fill="none" stroke="#ffa6d5"></use><use xlink:href="#bbburst-shape-10" width="45.48020102385226" opacity="0.04785083680351865" transform="matrix(1.5784749456935403,-0.7555903955303924,0.7555903955303924,1.5784749456935403,-296.8753990676267,-448.48623509205026)" fill="none" stroke="#ff5c58" filter="url(#bbburst-blur-4)"></use><use xlink:href="#bbburst-shape-10" width="32.965250315146776" opacity="0.06911359803320682" transform="matrix(1.5842364602635415,-0.7434344880160216,0.7434344880160216,1.5842364602635415,430.6344546461923,-445.21494615712885)" fill="none" stroke="#2c2891" filter="url(#bbburst-blur-4)"></use><use xlink:href="#bbburst-shape-8" width="41.157835911609034" opacity="0.28824392078282357" transform="matrix(1.2170384778839165,-0.28516195985790127,0.28516195985790127,1.2170384778839165,524.8885208667805,100.41043794920552)" fill="none" stroke="#2c2891" filter="url(#bbburst-blur-3)"></use><use xlink:href="#bbburst-shape-6" width="24.070531962635563" opacity="0.6333468581903845" transform="matrix(0.9999307804430415,-0.01176581159844125,0.01176581159844125,0.9999307804430415,344.9988685733738,160.6660791669956)" fill="#ffa6d5" filter="url(#bbburst-blur-1)"></use><use xlink:href="#bbburst-shape-4" width="19.114165851993512" opacity="0.7337462422563968" transform="matrix(0.9980012891025144,0.06319356731281568,-0.06319356731281568,0.9980012891025144,532.9921984641308,-24.423862810113462)" fill="#2c2891" filter="url(#bbburst-blur-1)"></use><use xlink:href="#bbburst-shape-10" width="34.239397710652106" opacity="0.42172673711999764" transform="matrix(0.8552382993911158,-0.5182349382804986,0.5182349382804986,0.8552382993911158,437.3149076413668,89.25485997071672)" fill="none" stroke="#ffbd9b" filter="url(#bbburst-blur-2)"></use><use xlink:href="#bbburst-shape-8" width="28.78513688539215" opacity="0.182462725262432" transform="matrix(1.0013413107339537,0.7482082460235302,-0.7482082460235302,1.0013413107339537,651.0291432543783,355.0267154218275)" fill="none" stroke="#00a19d" filter="url(#bbburst-blur-3)"></use><use xlink:href="#bbburst-shape-10" width="16.672104478440602" opacity="0.9475663409957478" transform="matrix(0.7679929539799077,0.6404582910988158,-0.6404582910988158,0.7679929539799077,668.2660578091865,72.79956353220649)" fill="none" stroke="#ff5c58"></use><use xlink:href="#bbburst-shape-10" width="31.078721600399916" opacity="0.37710586329003326" transform="matrix(0.9536480417660836,-0.30092426362078895,0.30092426362078895,0.9536480417660836,7.625162056590938,-88.24940267884818)" fill="none" stroke="#ffa6d5" filter="url(#bbburst-blur-2)"></use><use xlink:href="#bbburst-shape-8" width="13.11785933053745" opacity="0.9069404885170229" transform="matrix(0.7564226254541523,0.6540831840836816,-0.6540831840836816,0.7564226254541523,685.4986091368228,123.51665396751264)" fill="none" stroke="#2c2891"></use><use xlink:href="#bbburst-shape-10" width="15.437229207887443" opacity="0.8099141894390061" transform="matrix(0.9930207803665271,0.11793951738180733,-0.11793951738180733,0.9930207803665271,468.3191233031906,82.4229785173124)" fill="none" stroke="#00a19d"></use><use xlink:href="#bbburst-shape-10" width="37.78854802782333" opacity="0.3126371256391416" transform="matrix(1.1275984316730088,0.5394643425552526,-0.5394643425552526,1.1275984316730088,852.126802387198,-232.38451774808829)" fill="none" stroke="#2c2891" filter="url(#bbburst-blur-3)"></use><use xlink:href="#bbburst-shape-6" width="18.252355181531197" opacity="0.7073752935157227" transform="matrix(0.9882492306268759,-0.1528510980182603,0.1528510980182603,0.9882492306268759,248.53809845302595,-97.48933686426068)" fill="#2c2891" filter="url(#bbburst-blur-1)"></use><use xlink:href="#bbburst-shape-1" width="47.22841614986404" opacity="-0.08040111369478264" transform="matrix(1.4920746202342072,-0.9144470064760156,0.9144470064760156,1.4920746202342072,343.63901328465283,167.81971910272807)" fill="#2c2891" filter="url(#bbburst-blur-4)"></use><use xlink:href="#bbburst-shape-10" width="31.609323964441842" opacity="0.07680612124924036" transform="matrix(1.7163748239381593,0.3414051314073243,-0.3414051314073243,1.7163748239381593,293.650005345982,63.053994338857365)" fill="none" stroke="#ffa6d5" filter="url(#bbburst-blur-4)"></use><use xlink:href="#bbburst-shape-4" width="26.657706686213828" opacity="0.4971581183972372" transform="matrix(0.8730481192132268,-0.487634065194637,0.487634065194637,0.8730481192132268,392.6094680598978,-49.87305451340683)" fill="#ff5c58" filter="url(#bbburst-blur-2)"></use><use xlink:href="#bbburst-shape-10" width="16.106368324042318" opacity="0.7966707380059503" transform="matrix(0.7305050132068962,-0.6829073331569903,0.6829073331569903,0.7305050132068962,42.98047070890618,65.42259623728268)" fill="none" stroke="#2c2891"></use><use xlink:href="#bbburst-shape-10" width="13.022697493125357" opacity="0.8627255300896707" transform="matrix(0.9945536983967586,-0.10422543358187265,0.10422543358187265,0.9945536983967586,290.0772844527149,1.4142955190495172)" fill="none" stroke="#2c2891"></use><use xlink:href="#bbburst-shape-8" width="34.10720313014679" opacity="0.4962640836086164" transform="matrix(0.8065528091526106,-0.5911620471985939,0.5911620471985939,0.8065528091526106,157.23133879519267,-139.09836106547417)" fill="none" stroke="#ffa6d5" filter="url(#bbburst-blur-2)"></use><use xlink:href="#bbburst-shape-6" width="20.836291837860315" opacity="0.7131500346908919" transform="matrix(0.8404693224761726,-0.5418591311184516,0.5418591311184516,0.8404693224761726,182.73819406514002,198.27699727808977)" fill="#ffbd9b" filter="url(#bbburst-blur-1)"></use><use xlink:href="#bbburst-shape-4" width="28.70308892500628" opacity="0.5032857552116492" transform="matrix(0.9654001680987356,0.26077291928981605,-0.26077291928981605,0.9654001680987356,305.1505683511314,-114.88511915581267)" fill="#ffa6d5" filter="url(#bbburst-blur-2)"></use><use xlink:href="#bbburst-shape-6" width="34.537054115701025" opacity="-0.08495418901330742" transform="matrix(1.7497201638196593,-0.03129454142345695,0.03129454142345695,1.7497201638196593,16.015126247823112,-648.5102752583509)" fill="#ff5c58" filter="url(#bbburst-blur-4)"></use><use xlink:href="#bbburst-shape-6" width="35.0197156306172" opacity="0.31382494836427577" transform="matrix(1.1166675356934737,0.5617415907054282,-0.5617415907054282,1.1166675356934737,898.6436159762468,39.425221148169726)" fill="#2c2891" filter="url(#bbburst-blur-3)"></use><use xlink:href="#bbburst-shape-10" width="12.66559140908784" opacity="0.8939722116898666" transform="matrix(0.9998519432339695,-0.017207312726136396,0.017207312726136396,0.9998519432339695,378.9247840151265,47.22875732854175)" fill="none" stroke="#00a19d"></use><use xlink:href="#bbburst-shape-6" width="26.915823369186306" opacity="0.5872094473767421" transform="matrix(0.8454274944154498,0.5340902093152565,-0.5340902093152565,0.8454274944154498,670.445579383607,-118.14645241719072)" fill="#2c2891" filter="url(#bbburst-blur-1)"></use><use xlink:href="#bbburst-shape-8" width="32.23392534651278" opacity="0.16180714977324273" transform="matrix(1.246640188928116,0.09158733181653059,-0.09158733181653059,1.246640188928116,54.598574725034396,-206.27449318288757)" fill="none" stroke="#00a19d" filter="url(#bbburst-blur-3)"></use></svg>